<svg id="svg" version="1.1" xmlns="http://www.w3.org/2000/svg" xmlns:xlink="http://www.w3.org/1999/xlink" width="400" height="400" viewBox="0, 0, 400,400"><g id="svgg"><path id="path0" d="M153.000 44.867 C 153.440 45.110,154.169 45.600,154.619 45.955 C 155.070 46.310,154.932 46.105,154.313 45.500 C 153.694 44.895,152.965 44.405,152.694 44.412 C 152.422 44.419,152.560 44.623,153.000 44.867 M139.601 46.198 C 139.086 46.748,138.739 47.264,138.832 47.346 C 138.924 47.428,139.419 46.978,139.930 46.347 C 141.076 44.935,140.874 44.844,139.601 46.198 M156.428 49.876 C 156.518 50.915,157.144 51.796,157.172 50.924 C 157.187 50.442,157.020 49.936,156.800 49.800 C 156.580 49.664,156.413 49.698,156.428 49.876 M138.800 52.305 C 138.800 53.845,142.530 55.753,145.038 55.495 C 146.530 55.342,146.514 55.331,144.680 55.267 C 142.438 55.189,140.804 54.439,139.635 52.954 C 139.176 52.370,138.800 52.078,138.800 52.305 M159.044 59.000 C 159.373 60.471,159.602 60.790,159.594 59.767 C 159.591 59.345,159.405 58.730,159.182 58.400 C 158.885 57.962,158.848 58.124,159.044 59.000 M159.844 61.800 C 160.173 63.271,160.402 63.590,160.394 62.567 C 160.391 62.145,160.205 61.530,159.982 61.200 C 159.685 60.762,159.648 60.924,159.844 61.800 M160.644 64.600 C 160.973 66.071,161.202 66.390,161.194 65.367 C 161.191 64.945,161.005 64.330,160.782 64.000 C 160.485 63.562,160.448 63.724,160.644 64.600 M161.272 66.800 C 161.382 67.130,161.988 69.268,162.619 71.552 C 163.249 73.835,163.818 75.545,163.883 75.351 C 164.032 74.903,161.720 66.776,161.349 66.446 C 161.197 66.311,161.162 66.470,161.272 66.800 M150.056 68.000 C 150.056 68.330,150.211 68.960,150.400 69.400 C 150.617 69.904,150.744 69.978,150.744 69.600 C 150.744 69.270,150.589 68.640,150.400 68.200 C 150.183 67.696,150.056 67.622,150.056 68.000 M150.856 70.800 C 150.856 71.130,151.011 71.760,151.200 72.200 C 151.417 72.704,151.544 72.778,151.544 72.400 C 151.544 72.070,151.389 71.440,151.200 71.000 C 150.983 70.496,150.856 70.422,150.856 70.800 M151.656 73.600 C 151.656 73.930,151.811 74.560,152.000 75.000 C 152.217 75.504,152.344 75.578,152.344 75.200 C 152.344 74.870,152.189 74.240,152.000 73.800 C 151.783 73.296,151.656 73.222,151.656 73.600 M228.149 77.500 L 256.099 77.605 255.872 78.903 C 255.674 80.031,255.701 80.085,256.074 79.322 C 257.161 77.097,258.468 77.191,228.113 77.297 L 200.200 77.394 228.149 77.500 M151.844 79.800 C 152.173 81.271,152.402 81.590,152.394 80.567 C 152.391 80.145,152.205 79.530,151.982 79.200 C 151.685 78.762,151.648 78.924,151.844 79.800 M255.249 81.200 C 255.216 81.530,255.089 82.250,254.967 82.800 C 254.775 83.664,254.807 83.703,255.199 83.088 C 255.448 82.697,255.575 81.977,255.481 81.488 C 255.386 81.000,255.282 80.870,255.249 81.200 M111.693 82.400 C 111.693 83.170,111.775 83.485,111.876 83.100 C 111.976 82.715,111.976 82.085,111.876 81.700 C 111.775 81.315,111.693 81.630,111.693 82.400 M288.093 82.800 C 288.093 83.570,288.175 83.885,288.276 83.500 C 288.376 83.115,288.376 82.485,288.276 82.100 C 288.175 81.715,288.093 82.030,288.093 82.800 M152.658 83.200 C 152.975 84.925,153.202 85.251,153.194 83.967 C 153.191 83.435,153.011 82.730,152.794 82.400 C 152.518 81.978,152.477 82.215,152.658 83.200 M254.229 85.829 C 254.081 86.415,254.051 86.984,254.161 87.094 C 254.271 87.204,254.481 86.815,254.629 86.229 C 254.776 85.642,254.806 85.073,254.696 84.963 C 254.586 84.853,254.376 85.242,254.229 85.829 M110.635 89.035 C 110.483 90.716,110.441 92.174,110.542 92.276 C 110.643 92.377,110.855 91.088,111.012 89.412 C 111.169 87.736,111.211 86.277,111.105 86.171 C 110.999 86.066,110.788 87.354,110.635 89.035 M288.914 88.200 C 288.917 89.300,288.995 89.703,289.087 89.095 C 289.179 88.486,289.177 87.586,289.082 87.095 C 288.987 86.603,288.911 87.100,288.914 88.200 M253.429 89.429 C 253.281 90.015,253.238 90.572,253.332 90.666 C 253.427 90.760,253.624 90.358,253.771 89.771 C 253.919 89.185,253.962 88.628,253.868 88.534 C 253.773 88.440,253.576 88.842,253.429 89.429 M289.301 91.800 C 289.305 92.680,289.387 92.993,289.483 92.495 C 289.579 91.998,289.575 91.278,289.475 90.895 C 289.375 90.513,289.296 90.920,289.301 91.800 M252.629 93.029 C 252.481 93.615,252.438 94.172,252.532 94.266 C 252.627 94.360,252.824 93.958,252.971 93.371 C 253.119 92.785,253.162 92.228,253.068 92.134 C 252.973 92.040,252.776 92.442,252.629 93.029 M110.157 98.800 C 110.157 101.770,110.220 102.985,110.297 101.500 C 110.374 100.015,110.374 97.585,110.297 96.100 C 110.220 94.615,110.157 95.830,110.157 98.800 M289.748 98.800 C 289.748 101.110,289.814 102.055,289.895 100.900 C 289.976 99.745,289.976 97.855,289.895 96.700 C 289.814 95.545,289.748 96.490,289.748 98.800 M251.829 96.629 C 251.681 97.215,251.638 97.772,251.732 97.866 C 251.827 97.960,252.024 97.558,252.171 96.971 C 252.319 96.385,252.362 95.828,252.268 95.734 C 252.173 95.640,251.976 96.042,251.829 96.629 M251.029 100.229 C 250.881 100.815,250.838 101.372,250.932 101.466 C 251.027 101.560,251.224 101.158,251.371 100.571 C 251.519 99.985,251.562 99.428,251.468 99.334 C 251.373 99.240,251.176 99.642,251.029 100.229 M156.806 100.433 C 156.809 100.965,156.989 101.670,157.206 102.000 C 157.482 102.422,157.523 102.185,157.342 101.200 C 157.025 99.475,156.798 99.149,156.806 100.433 M157.606 103.633 C 157.609 104.165,157.789 104.870,158.006 105.200 C 158.282 105.622,158.323 105.385,158.142 104.400 C 157.825 102.675,157.598 102.349,157.606 103.633 M250.229 103.829 C 250.081 104.415,250.038 104.972,250.132 105.066 C 250.227 105.160,250.424 104.758,250.571 104.171 C 250.719 103.585,250.762 103.028,250.668 102.934 C 250.573 102.840,250.376 103.242,250.229 103.829 M289.309 106.000 C 289.309 106.990,289.387 107.395,289.482 106.900 C 289.578 106.405,289.578 105.595,289.482 105.100 C 289.387 104.605,289.309 105.010,289.309 106.000 M110.501 106.600 C 110.505 107.480,110.587 107.793,110.683 107.295 C 110.779 106.798,110.775 106.078,110.675 105.695 C 110.575 105.313,110.496 105.720,110.501 106.600 M158.406 107.033 C 158.409 107.455,158.595 108.070,158.818 108.400 C 159.115 108.838,159.152 108.676,158.956 107.800 C 158.627 106.329,158.398 106.010,158.406 107.033 M249.429 107.429 C 249.281 108.015,249.238 108.572,249.332 108.666 C 249.427 108.760,249.624 108.358,249.771 107.771 C 249.919 107.185,249.962 106.628,249.868 106.534 C 249.773 106.440,249.576 106.842,249.429 107.429 M288.914 109.800 C 288.917 110.900,288.995 111.303,289.087 110.695 C 289.179 110.086,289.177 109.186,289.082 108.695 C 288.987 108.203,288.911 108.700,288.914 109.800 M110.909 110.000 C 110.909 110.990,110.987 111.395,111.082 110.900 C 111.178 110.405,111.178 109.595,111.082 109.100 C 110.987 108.605,110.909 109.010,110.909 110.000 M159.206 110.233 C 159.209 110.655,159.395 111.270,159.618 111.600 C 159.915 112.038,159.952 111.876,159.756 111.000 C 159.427 109.529,159.198 109.210,159.206 110.233 M248.629 111.029 C 248.481 111.615,248.438 112.172,248.532 112.266 C 248.627 112.360,248.824 111.958,248.971 111.371 C 249.119 110.785,249.162 110.228,249.068 110.134 C 248.973 110.040,248.776 110.442,248.629 111.029 M247.873 114.153 C 247.723 114.545,247.611 115.166,247.625 115.533 C 247.642 115.975,247.781 115.874,248.037 115.234 C 248.249 114.703,248.361 114.082,248.285 113.854 C 248.209 113.627,248.024 113.761,247.873 114.153 M111.628 115.233 C 111.644 115.985,111.812 116.960,112.003 117.400 C 112.226 117.915,112.267 117.487,112.118 116.200 C 111.844 113.822,111.589 113.319,111.628 115.233 M288.054 114.800 C 288.019 115.350,287.896 116.250,287.783 116.800 L 287.577 117.800 288.007 116.815 C 288.243 116.274,288.365 115.374,288.278 114.815 L 288.120 113.800 288.054 114.800 M247.056 117.684 C 246.921 118.188,246.827 118.960,246.846 119.400 C 246.865 119.840,247.045 119.498,247.246 118.640 C 247.636 116.978,247.470 116.140,247.056 117.684 M287.249 118.600 C 287.216 119.040,287.096 119.850,286.983 120.400 L 286.777 121.400 287.206 120.419 C 287.442 119.879,287.561 119.069,287.472 118.619 C 287.313 117.821,287.307 117.821,287.249 118.600 M112.406 119.233 C 112.409 119.765,112.589 120.470,112.806 120.800 C 113.082 121.222,113.123 120.985,112.942 120.000 C 112.625 118.275,112.398 117.949,112.406 119.233 M246.256 121.284 C 246.121 121.788,246.027 122.560,246.046 123.000 C 246.065 123.440,246.245 123.098,246.446 122.240 C 246.836 120.578,246.670 119.740,246.256 121.284 M286.229 123.029 C 286.081 123.615,286.038 124.172,286.132 124.266 C 286.227 124.360,286.424 123.958,286.571 123.371 C 286.719 122.785,286.762 122.228,286.668 122.134 C 286.573 122.040,286.376 122.442,286.229 123.029 M245.456 124.884 C 245.321 125.388,245.227 126.160,245.246 126.600 C 245.265 127.040,245.445 126.698,245.646 125.840 C 246.036 124.178,245.870 123.340,245.456 124.884 M153.200 126.159 C 152.210 126.896,150.862 128.106,150.204 128.849 C 149.234 129.944,149.348 129.888,150.804 128.554 C 151.792 127.648,153.317 126.433,154.193 125.854 C 155.069 125.274,155.609 124.804,155.393 124.810 C 155.177 124.815,154.190 125.423,153.200 126.159 M243.726 130.648 C 243.590 131.004,242.660 131.814,241.661 132.448 C 240.661 133.081,240.032 133.600,240.263 133.600 C 240.940 133.600,243.268 131.876,243.908 130.900 C 244.232 130.405,244.380 130.000,244.236 130.000 C 244.092 130.000,243.863 130.291,243.726 130.648 M162.709 133.926 C 162.330 134.079,163.752 134.245,165.869 134.295 C 167.987 134.345,169.648 134.324,169.560 134.247 C 169.209 133.941,163.355 133.667,162.709 133.926 M187.330 133.900 C 196.972 133.960,212.632 133.960,222.130 133.900 C 231.629 133.840,223.740 133.791,204.600 133.791 C 185.460 133.791,177.689 133.840,187.330 133.900 M279.882 139.411 C 279.292 140.615,278.894 141.600,278.998 141.600 C 279.267 141.600,281.284 137.551,281.105 137.371 C 281.023 137.289,280.473 138.207,279.882 139.411 M145.443 138.233 C 145.119 139.075,145.184 144.418,145.528 145.286 C 145.678 145.663,145.800 144.088,145.800 141.786 C 145.800 137.268,145.803 137.295,145.443 138.233 M156.652 139.700 C 156.334 140.886,156.383 143.214,156.745 144.133 C 156.904 144.536,157.026 143.501,157.017 141.833 C 156.998 138.463,156.993 138.430,156.652 139.700 M121.000 142.000 C 121.341 142.660,121.711 143.200,121.821 143.200 C 121.931 143.200,121.741 142.660,121.400 142.000 C 121.059 141.340,120.689 140.800,120.579 140.800 C 120.469 140.800,120.659 141.340,121.000 142.000 M220.021 143.179 C 219.646 143.416,220.070 143.465,221.221 143.318 C 222.199 143.192,223.075 143.025,223.167 142.945 C 223.542 142.619,220.555 142.840,220.021 143.179 M224.400 142.958 C 224.400 143.045,225.105 143.183,225.966 143.265 C 226.828 143.348,227.447 143.276,227.343 143.107 C 227.153 142.800,224.400 142.660,224.400 142.958 M122.360 144.200 C 123.034 145.505,123.588 146.228,123.585 145.800 C 123.583 145.580,123.214 144.950,122.764 144.400 C 122.221 143.736,122.085 143.669,122.360 144.200 M277.108 144.500 C 276.233 145.849,275.448 147.456,275.887 147.000 C 276.448 146.417,278.098 143.600,277.879 143.600 C 277.776 143.600,277.429 144.005,277.108 144.500 M157.499 145.805 C 157.977 146.694,159.941 148.630,160.098 148.368 C 160.154 148.276,159.496 147.482,158.635 146.605 C 157.775 145.728,157.263 145.368,157.499 145.805 M168.975 146.500 L 167.800 147.800 169.100 146.625 C 169.815 145.979,170.400 145.394,170.400 145.325 C 170.400 145.016,170.070 145.288,168.975 146.500 M214.600 146.800 L 213.038 148.400 200.799 148.400 C 191.573 148.400,188.422 148.277,187.999 147.900 C 187.522 147.475,187.518 147.504,187.968 148.100 C 188.531 148.843,212.447 149.206,213.400 148.486 C 214.064 147.984,216.572 145.200,216.360 145.200 C 216.251 145.200,215.459 145.920,214.600 146.800 M232.425 146.631 C 233.181 147.528,233.881 148.197,233.980 148.117 C 234.079 148.038,233.460 147.304,232.605 146.487 L 231.050 145.000 232.425 146.631 M124.988 148.600 C 126.043 150.297,130.324 155.906,130.780 156.188 C 131.126 156.401,125.002 148.068,124.470 147.600 C 124.345 147.490,124.578 147.940,124.988 148.600 M167.217 148.579 C 166.953 148.898,165.896 149.226,164.868 149.307 L 163.000 149.456 164.838 149.528 C 166.230 149.582,166.852 149.406,167.400 148.800 C 167.798 148.360,168.028 148.000,167.911 148.000 C 167.794 148.000,167.482 148.261,167.217 148.579 M236.000 148.664 C 240.248 148.947,248.289 148.976,247.864 148.706 C 247.609 148.544,244.430 148.442,240.800 148.478 C 237.170 148.515,235.010 148.598,236.000 148.664 M271.048 153.500 C 269.790 155.205,269.325 155.970,270.013 155.200 C 271.346 153.709,273.741 150.400,273.486 150.400 C 273.403 150.400,272.305 151.795,271.048 153.500 M147.600 151.115 C 147.600 151.288,148.148 152.053,148.819 152.815 L 150.038 154.200 148.966 152.500 C 147.903 150.814,147.600 150.507,147.600 151.115 M133.422 159.352 C 135.855 162.181,142.066 168.067,142.334 167.799 C 142.416 167.717,141.790 167.071,140.942 166.364 C 140.094 165.657,137.522 163.171,135.227 160.839 C 132.194 157.759,131.701 157.352,133.422 159.352 M153.775 157.560 C 154.129 158.132,157.642 159.655,158.139 159.452 C 158.437 159.330,158.408 159.252,158.058 159.232 C 157.760 159.214,156.626 158.753,155.539 158.207 C 154.451 157.660,153.658 157.370,153.775 157.560 M263.003 162.527 C 260.014 165.564,259.185 166.548,260.803 165.139 C 263.102 163.137,264.143 162.079,267.336 158.500 C 269.322 156.274,267.403 158.058,263.003 162.527 M248.400 159.033 C 247.842 159.343,247.665 159.585,248.000 159.581 C 248.330 159.578,248.949 159.310,249.376 158.987 C 250.339 158.259,249.745 158.287,248.400 159.033 M159.200 160.005 C 159.530 160.216,160.325 160.391,160.967 160.394 C 162.514 160.402,162.177 160.171,160.200 159.868 C 159.110 159.701,158.791 159.745,159.200 160.005 M200.609 159.900 L 212.218 160.012 213.204 161.606 C 213.746 162.483,214.320 163.200,214.481 163.200 C 214.642 163.200,214.226 162.390,213.558 161.400 L 212.343 159.600 200.672 159.694 L 189.000 159.787 200.609 159.900 M234.365 160.900 C 233.876 161.615,232.739 163.007,231.838 163.993 C 230.778 165.154,230.616 165.436,231.380 164.793 C 233.003 163.427,233.911 162.393,234.613 161.111 L 235.210 160.021 241.105 159.899 L 247.000 159.777 241.127 159.688 L 235.254 159.600 234.365 160.900 M163.300 160.687 C 163.905 160.778,164.895 160.778,165.500 160.687 C 166.105 160.595,165.610 160.520,164.400 160.520 C 163.190 160.520,162.695 160.595,163.300 160.687 M167.499 161.800 C 167.954 162.460,168.923 163.540,169.652 164.200 C 170.630 165.087,170.519 164.878,169.226 163.400 C 166.866 160.702,166.520 160.382,167.499 161.800 M186.251 163.740 C 185.180 164.807,184.640 165.497,185.051 165.273 C 185.928 164.796,188.626 162.061,188.373 161.906 C 188.278 161.848,187.323 162.673,186.251 163.740 M214.800 163.759 C 214.800 163.861,215.385 164.356,216.100 164.857 C 217.022 165.504,217.235 165.564,216.833 165.063 C 216.260 164.350,214.800 163.413,214.800 163.759 M144.200 169.373 C 146.169 171.126,154.400 176.696,154.400 176.275 C 154.400 176.181,152.925 175.145,151.123 173.974 C 149.320 172.803,146.665 170.968,145.223 169.897 C 143.473 168.596,143.132 168.422,144.200 169.373 M255.600 169.249 C 254.206 170.471,254.205 170.472,255.488 169.619 C 256.196 169.148,256.882 168.591,257.012 168.381 C 257.397 167.757,257.077 167.954,255.600 169.249 M250.400 172.889 C 244.150 177.197,244.023 177.566,250.200 173.470 C 254.343 170.722,254.185 170.839,253.967 170.672 C 253.875 170.602,252.270 171.600,250.400 172.889 M243.600 177.236 C 242.936 177.779,242.869 177.915,243.400 177.640 C 244.705 176.966,245.428 176.412,245.000 176.415 C 244.780 176.417,244.150 176.786,243.600 177.236 M225.600 184.800 C 225.067 185.145,225.067 185.188,225.600 185.188 C 225.930 185.188,226.470 185.013,226.800 184.800 C 227.333 184.455,227.333 184.412,226.800 184.412 C 226.470 184.412,225.930 184.587,225.600 184.800 M176.000 185.582 C 176.330 185.805,176.945 185.991,177.367 185.994 C 178.390 186.002,178.071 185.773,176.600 185.444 C 175.724 185.248,175.562 185.285,176.000 185.582 M222.800 185.600 C 221.976 185.864,221.941 185.926,222.600 185.954 C 223.040 185.973,223.670 185.813,224.000 185.600 C 224.701 185.147,224.214 185.147,222.800 185.600 M179.000 186.381 C 179.768 186.729,181.910 186.956,181.567 186.653 C 181.475 186.572,180.680 186.396,179.800 186.262 C 178.685 186.093,178.442 186.129,179.000 186.381 M219.400 186.400 C 218.311 186.677,218.293 186.707,219.200 186.725 C 219.750 186.735,220.560 186.589,221.000 186.400 C 221.986 185.976,221.066 185.976,219.400 186.400 M182.800 187.180 C 183.799 187.520,186.282 187.732,185.967 187.451 C 185.875 187.369,184.900 187.199,183.800 187.072 C 182.451 186.916,182.126 186.951,182.800 187.180 M215.200 187.200 C 213.843 187.486,213.837 187.495,215.000 187.507 C 215.660 187.515,216.650 187.376,217.200 187.200 C 218.512 186.780,217.196 186.780,215.200 187.200 M187.600 188.008 C 188.592 188.318,193.087 188.533,192.767 188.255 C 192.675 188.176,191.250 188.017,189.600 187.903 C 187.907 187.786,187.036 187.831,187.600 188.008 M208.100 188.287 C 208.705 188.378,209.695 188.378,210.300 188.287 C 210.905 188.195,210.410 188.120,209.200 188.120 C 207.990 188.120,207.495 188.195,208.100 188.287 M196.900 188.697 C 198.605 188.772,201.395 188.772,203.100 188.697 C 204.805 188.622,203.410 188.561,200.000 188.561 C 196.590 188.561,195.195 188.622,196.900 188.697 M166.400 189.833 C 166.400 192.519,163.047 200.336,160.409 203.800 C 146.449 222.131,120.885 222.214,106.302 203.974 C 104.607 201.854,101.685 195.701,100.948 192.700 C 100.157 189.478,99.809 189.335,99.238 191.995 C 97.105 201.945,88.027 212.049,78.200 215.411 C 74.293 216.747,73.330 216.899,67.200 217.148 L 61.000 217.400 60.893 299.600 C 60.829 348.763,60.934 382.122,61.153 382.600 C 61.354 383.040,61.757 384.030,62.048 384.800 C 62.639 386.365,66.112 390.000,67.016 390.000 C 67.337 390.000,67.600 390.180,67.600 390.400 C 67.600 390.655,64.192 390.800,58.176 390.800 C 51.996 390.800,48.838 390.938,49.000 391.200 C 49.163 391.463,67.470 391.600,102.621 391.600 L 155.994 391.600 156.144 337.500 C 156.287 285.976,156.401 279.902,157.239 279.020 C 157.437 278.811,157.600 278.234,157.600 277.739 C 157.600 277.243,157.802 276.334,158.050 275.719 C 158.297 275.103,158.640 274.240,158.811 273.800 C 162.035 265.508,166.837 259.130,173.955 253.682 C 176.359 251.843,184.528 247.600,185.666 247.600 C 186.044 247.600,186.452 247.440,186.573 247.244 C 186.694 247.049,187.469 246.774,188.296 246.633 C 189.123 246.493,190.790 246.179,192.000 245.935 C 211.414 242.025,233.493 254.037,240.457 272.300 C 240.646 272.795,240.968 273.605,241.174 274.100 C 242.105 276.345,243.050 280.322,243.574 284.200 C 243.864 286.353,244.004 304.444,244.003 339.500 L 244.000 391.600 297.381 391.600 C 328.884 391.600,351.139 391.449,351.681 391.233 C 352.800 390.785,353.690 390.510,354.126 390.477 C 354.760 390.429,358.000 386.896,358.000 386.253 C 358.000 385.894,358.180 385.600,358.400 385.600 C 358.620 385.600,358.800 385.251,358.800 384.824 C 358.800 384.397,358.980 383.936,359.200 383.800 C 359.644 383.525,359.789 205.200,359.344 205.200 C 359.204 205.200,357.719 206.505,356.044 208.100 C 337.657 225.615,305.993 216.390,300.762 191.995 C 300.286 189.779,299.742 189.428,299.372 191.100 C 294.213 214.442,267.142 224.862,247.200 211.181 C 240.778 206.776,235.207 198.267,233.792 190.704 C 233.492 189.096,232.800 189.027,232.800 190.604 C 232.800 194.697,228.395 202.863,223.626 207.611 C 206.007 225.151,176.311 218.326,168.346 194.906 C 167.716 193.053,167.200 191.112,167.200 190.592 C 167.200 190.073,167.020 189.536,166.800 189.400 C 166.580 189.264,166.400 189.459,166.400 189.833 M125.000 292.400 L 125.000 339.000 98.800 339.000 L 72.600 339.000 72.490 293.200 C 72.430 268.010,72.479 246.994,72.599 246.497 L 72.817 245.594 98.908 245.697 L 125.000 245.800 125.000 292.400 M327.402 246.500 C 327.522 246.995,327.570 268.010,327.510 293.200 L 327.400 339.000 301.200 339.000 L 275.000 339.000 274.897 292.800 C 274.840 267.390,274.880 246.375,274.984 246.100 C 275.134 245.707,280.744 245.600,301.180 245.600 L 327.185 245.600 327.402 246.500 M40.667 381.067 C 40.243 381.490,40.357 384.000,40.800 384.000 C 41.020 384.000,41.200 383.280,41.200 382.400 C 41.200 380.765,41.134 380.600,40.667 381.067 M41.200 385.000 C 41.200 385.330,41.380 385.600,41.600 385.600 C 41.820 385.600,42.000 385.330,42.000 385.000 C 42.000 384.670,41.820 384.400,41.600 384.400 C 41.380 384.400,41.200 384.670,41.200 385.000 M42.000 386.386 C 42.000 387.051,44.407 389.549,45.325 389.835 C 45.806 389.985,46.321 390.296,46.468 390.526 C 46.864 391.143,48.335 391.147,48.571 390.532 C 48.707 390.178,48.445 390.000,47.787 390.000 C 47.244 390.000,46.800 389.820,46.800 389.600 C 46.800 389.380,46.485 389.196,46.100 389.191 C 45.715 389.186,44.781 388.466,44.024 387.591 C 42.669 386.025,42.000 385.627,42.000 386.386 " stroke="none" fill="#e9b989" fill-rule="evenodd"></path><path id="path1" d="M152.700 77.445 C 151.891 77.692,151.892 77.687,152.415 79.800 C 152.633 80.680,152.998 82.210,153.225 83.200 C 153.625 84.937,153.984 86.405,154.840 89.800 C 155.062 90.680,155.404 92.120,155.600 93.000 C 156.082 95.164,157.150 99.525,158.000 102.800 C 158.200 103.570,158.552 104.965,158.782 105.900 C 159.012 106.835,159.390 108.365,159.622 109.300 C 159.854 110.235,160.204 111.720,160.400 112.600 C 160.732 114.093,160.917 114.854,162.023 119.300 C 162.256 120.235,162.601 121.954,162.791 123.120 C 163.236 125.855,163.994 129.151,164.445 130.319 C 164.640 130.824,164.800 131.667,164.800 132.192 C 164.800 132.812,165.096 133.240,165.646 133.415 C 166.566 133.707,237.818 133.289,239.829 132.979 C 241.968 132.650,243.847 130.358,244.729 127.000 C 245.121 125.509,245.368 124.444,246.400 119.800 C 246.620 118.810,246.976 117.235,247.190 116.300 C 247.405 115.365,248.148 111.990,248.841 108.800 C 249.534 105.610,250.240 102.370,250.410 101.600 C 250.580 100.830,250.936 99.210,251.200 98.000 C 251.464 96.790,251.824 95.170,252.000 94.400 C 252.176 93.630,252.536 92.010,252.800 90.800 C 253.064 89.590,253.452 87.880,253.662 87.000 C 254.273 84.440,254.776 82.129,255.124 80.285 C 255.302 79.342,255.582 78.352,255.747 78.085 C 255.982 77.706,246.584 77.600,212.724 77.599 C 188.896 77.598,165.800 77.515,161.400 77.415 C 157.000 77.314,153.085 77.328,152.700 77.445 M48.000 121.941 C 48.000 122.194,47.471 122.400,46.824 122.400 C 46.177 122.400,45.536 122.580,45.400 122.800 C 45.264 123.020,44.713 123.200,44.176 123.200 C 43.639 123.200,43.200 123.380,43.200 123.600 C 43.200 123.820,42.996 124.000,42.747 124.000 C 42.498 124.000,41.971 124.372,41.577 124.826 C 41.183 125.281,40.761 125.647,40.638 125.640 C 39.983 125.604,37.960 127.133,37.517 127.999 C 37.236 128.550,36.734 129.270,36.403 129.600 C 35.624 130.375,34.000 133.510,34.000 134.238 C 34.000 134.547,33.820 134.800,33.600 134.800 C 33.380 134.800,33.200 135.610,33.200 136.600 C 33.200 137.590,33.017 138.400,32.794 138.400 C 32.524 138.400,32.394 146.624,32.406 163.000 C 32.417 178.623,32.565 187.600,32.812 187.600 C 33.025 187.600,33.200 188.500,33.200 189.600 C 33.200 190.700,33.380 191.600,33.600 191.600 C 33.820 191.600,34.000 192.320,34.000 193.200 C 34.000 194.080,34.180 194.800,34.400 194.800 C 34.620 194.800,34.800 195.160,34.800 195.600 C 34.800 196.040,34.980 196.400,35.200 196.400 C 35.420 196.400,35.600 196.940,35.600 197.600 C 35.600 198.260,35.780 198.800,36.000 198.800 C 36.220 198.800,36.400 199.120,36.400 199.512 C 36.400 199.903,36.760 200.483,37.200 200.800 C 37.640 201.117,38.000 201.614,38.000 201.905 C 38.000 202.196,38.360 202.820,38.800 203.292 C 39.240 203.764,39.600 204.406,39.600 204.718 C 39.600 205.063,39.840 205.194,40.211 205.051 C 40.613 204.897,41.675 205.680,43.311 207.338 C 48.783 212.880,55.530 216.193,62.261 216.641 C 64.207 216.770,65.932 216.958,66.094 217.058 C 66.726 217.449,75.085 216.094,77.400 215.226 C 86.097 211.963,92.567 206.214,96.230 198.494 C 98.393 193.935,98.308 194.200,99.405 188.672 C 99.672 187.330,100.556 187.439,100.701 188.831 C 100.894 190.676,101.730 194.202,102.064 194.580 C 102.249 194.789,102.400 195.196,102.400 195.484 C 102.400 197.290,106.258 203.454,109.573 206.946 C 125.353 223.567,153.432 218.984,163.165 198.200 C 164.746 194.823,165.030 193.958,166.018 189.500 C 166.548 187.111,167.200 186.423,167.200 188.254 C 167.200 191.315,169.919 198.563,172.493 202.364 C 186.970 223.740,218.692 221.417,229.883 198.161 C 231.429 194.950,232.800 190.197,232.800 188.054 C 232.800 185.957,233.461 186.650,233.989 189.300 C 235.909 198.929,241.847 207.778,249.200 211.970 C 251.982 213.556,254.378 214.680,256.000 215.160 C 256.990 215.453,258.250 215.838,258.800 216.015 C 275.631 221.435,297.720 206.716,299.296 189.031 C 299.434 187.479,300.310 187.237,300.595 188.672 C 301.712 194.300,301.664 194.152,303.774 198.522 C 307.502 206.246,314.060 212.066,322.600 215.229 C 327.708 217.122,335.193 217.416,341.200 215.962 C 346.720 214.625,353.348 210.613,357.529 206.076 C 358.612 204.902,359.335 204.387,359.463 204.700 C 359.782 205.483,360.400 205.286,360.400 204.400 C 360.400 203.960,360.550 203.600,360.732 203.600 C 360.915 203.600,361.319 203.105,361.630 202.500 C 361.940 201.895,362.511 201.109,362.897 200.753 C 363.284 200.397,363.600 199.823,363.600 199.477 C 363.600 199.130,363.780 198.736,364.000 198.600 C 364.220 198.464,364.400 197.913,364.400 197.376 C 364.400 196.839,364.580 196.400,364.800 196.400 C 365.020 196.400,365.200 195.939,365.200 195.376 C 365.200 194.796,365.373 194.460,365.600 194.600 C 365.842 194.749,366.000 194.204,366.000 193.224 C 366.000 192.331,366.180 191.600,366.400 191.600 C 366.620 191.600,366.800 190.711,366.800 189.624 C 366.800 188.537,366.980 187.536,367.200 187.400 C 367.460 187.240,367.600 178.604,367.600 162.800 C 367.600 146.996,367.460 138.360,367.200 138.200 C 366.980 138.064,366.800 137.243,366.800 136.376 C 366.800 135.509,366.620 134.800,366.400 134.800 C 366.180 134.800,366.000 134.440,366.000 134.000 C 366.000 133.560,365.820 133.200,365.600 133.200 C 365.380 133.200,365.200 132.913,365.200 132.562 C 365.200 131.837,363.823 129.746,362.658 128.700 C 362.229 128.315,362.035 128.000,362.228 128.000 C 362.421 128.000,361.987 127.460,361.264 126.800 C 360.542 126.140,359.816 125.600,359.651 125.600 C 359.486 125.600,359.002 125.285,358.575 124.900 C 358.149 124.515,357.260 123.954,356.600 123.653 C 355.940 123.353,355.087 122.948,354.705 122.753 C 354.323 122.559,353.558 122.400,353.005 122.400 C 352.452 122.400,352.000 122.212,352.000 121.981 C 352.000 121.697,349.845 121.636,345.300 121.792 C 341.615 121.918,327.014 122.151,312.853 122.310 L 287.106 122.600 285.809 126.600 C 284.079 131.937,282.641 135.411,280.269 139.991 C 279.184 142.086,278.094 144.204,277.848 144.697 C 277.602 145.190,277.265 145.595,277.100 145.597 C 276.935 145.599,276.800 145.790,276.800 146.022 C 276.800 146.615,271.917 153.742,270.786 154.800 C 270.669 154.910,270.158 155.540,269.652 156.200 C 265.969 161.001,257.234 169.283,253.500 171.515 C 252.895 171.877,252.400 172.314,252.400 172.486 C 252.400 172.659,252.130 172.800,251.800 172.800 C 251.470 172.800,251.200 172.980,251.200 173.200 C 251.200 173.420,250.930 173.600,250.600 173.600 C 250.270 173.600,250.000 173.780,250.000 174.000 C 250.000 174.220,249.730 174.400,249.400 174.400 C 249.070 174.400,248.800 174.580,248.800 174.800 C 248.800 175.020,248.530 175.200,248.200 175.200 C 247.870 175.200,247.600 175.359,247.600 175.553 C 247.600 175.748,247.285 176.010,246.900 176.136 C 246.515 176.262,245.390 176.848,244.400 177.438 C 235.153 182.952,221.946 187.218,209.600 188.677 C 206.240 189.075,193.760 189.075,190.400 188.677 C 182.121 187.699,171.176 184.909,165.704 182.383 C 164.772 181.952,163.912 181.600,163.793 181.600 C 163.382 181.600,157.790 178.787,155.800 177.579 C 154.700 176.911,153.485 176.262,153.100 176.136 C 152.715 176.010,152.400 175.748,152.400 175.553 C 152.400 175.359,152.130 175.200,151.800 175.200 C 151.470 175.200,151.200 175.064,151.200 174.898 C 151.200 174.731,150.694 174.371,150.075 174.097 C 149.456 173.824,148.601 173.280,148.175 172.889 C 147.749 172.498,146.770 171.742,146.000 171.208 C 145.230 170.675,144.510 170.140,144.400 170.019 C 144.290 169.899,143.300 169.095,142.200 168.233 C 130.905 159.385,118.706 141.596,114.518 127.865 C 114.171 126.729,113.661 125.080,113.385 124.200 L 112.882 122.600 91.741 122.358 C 80.113 122.225,65.515 121.974,59.300 121.800 C 50.886 121.564,48.000 121.600,48.000 121.941 M174.332 143.742 C 166.818 146.086,163.448 155.481,167.974 161.469 C 173.689 169.030,183.208 168.717,188.304 160.800 C 192.455 154.350,189.352 146.981,181.081 143.651 C 179.687 143.089,176.276 143.135,174.332 143.742 M220.600 143.696 C 218.077 144.560,217.328 145.065,214.963 147.496 C 211.644 150.908,210.540 155.440,212.257 158.600 C 212.616 159.260,213.163 160.286,213.474 160.881 C 216.626 166.908,225.911 168.634,231.134 164.163 C 239.114 157.333,237.050 147.826,226.681 143.651 C 225.333 143.108,222.251 143.131,220.600 143.696 " stroke="none" fill="#f7555a" fill-rule="evenodd"></path><path id="path2" d="M193.161 8.571 C 193.030 8.703,191.500 8.882,189.761 8.970 C 185.323 9.193,182.023 9.639,181.769 10.050 C 181.650 10.243,180.854 10.400,180.000 10.400 C 179.146 10.400,178.348 10.560,178.227 10.756 C 178.020 11.092,177.527 11.214,173.900 11.832 C 173.075 11.973,172.400 12.248,172.400 12.444 C 172.400 12.640,171.860 12.800,171.200 12.800 C 170.540 12.800,170.000 12.980,170.000 13.200 C 170.000 13.420,169.460 13.600,168.800 13.600 C 168.140 13.600,167.599 13.735,167.597 13.900 C 167.593 14.306,165.614 15.200,164.720 15.200 C 164.324 15.200,164.000 15.380,164.000 15.600 C 164.000 15.820,163.550 16.000,163.000 16.000 C 162.450 16.000,162.000 16.180,162.000 16.400 C 162.000 16.620,161.640 16.800,161.200 16.800 C 160.760 16.800,160.400 16.946,160.400 17.125 C 160.400 17.304,159.770 17.698,159.000 18.000 C 158.230 18.302,157.600 18.696,157.600 18.875 C 157.600 19.054,157.240 19.200,156.800 19.200 C 156.360 19.200,156.000 19.380,156.000 19.600 C 156.000 19.820,155.722 20.000,155.383 20.000 C 155.044 20.000,154.380 20.360,153.908 20.800 C 153.436 21.240,152.813 21.600,152.525 21.600 C 152.236 21.600,152.000 21.780,152.000 22.000 C 152.000 22.220,151.680 22.400,151.288 22.400 C 150.897 22.400,150.317 22.760,150.000 23.200 C 149.683 23.640,149.118 24.000,148.745 24.000 C 148.372 24.000,148.007 24.142,147.933 24.314 C 147.860 24.487,147.170 25.064,146.400 25.595 C 145.630 26.127,144.306 27.111,143.458 27.781 C 141.359 29.441,130.088 40.718,128.602 42.646 C 126.585 45.261,124.800 47.959,124.800 48.390 C 124.800 48.616,124.620 48.800,124.400 48.800 C 124.180 48.800,124.000 49.070,124.000 49.400 C 124.000 49.730,123.820 50.000,123.600 50.000 C 123.380 50.000,123.200 50.270,123.200 50.600 C 123.200 50.930,123.020 51.200,122.800 51.200 C 122.580 51.200,122.400 51.478,122.400 51.817 C 122.400 52.156,122.040 52.820,121.600 53.292 C 121.160 53.764,120.800 54.387,120.800 54.675 C 120.800 54.964,120.620 55.200,120.400 55.200 C 120.180 55.200,120.000 55.560,120.000 56.000 C 120.000 56.440,119.820 56.800,119.600 56.800 C 119.380 56.800,119.200 57.160,119.200 57.600 C 119.200 58.040,119.020 58.400,118.800 58.400 C 118.580 58.400,118.400 58.760,118.400 59.200 C 118.400 59.640,118.220 60.000,118.000 60.000 C 117.780 60.000,117.600 60.360,117.600 60.800 C 117.600 61.240,117.420 61.600,117.200 61.600 C 116.980 61.600,116.800 62.050,116.800 62.600 C 116.800 63.150,116.620 63.600,116.400 63.600 C 116.180 63.600,116.000 63.949,116.000 64.376 C 116.000 64.803,115.820 65.264,115.600 65.400 C 115.380 65.536,115.200 66.087,115.200 66.624 C 115.200 67.161,115.020 67.600,114.800 67.600 C 114.580 67.600,114.400 68.140,114.400 68.800 C 114.400 69.460,114.220 70.000,114.000 70.000 C 113.780 70.000,113.600 70.540,113.600 71.200 C 113.600 71.860,113.420 72.400,113.200 72.400 C 112.980 72.400,112.800 72.929,112.800 73.576 C 112.800 74.223,112.599 74.877,112.354 75.029 C 112.065 75.207,112.000 75.958,112.169 77.152 C 112.519 79.637,112.525 79.480,111.999 82.200 C 108.077 102.513,111.937 126.036,121.977 143.005 C 122.760 144.328,123.658 145.906,123.972 146.514 C 130.445 158.999,148.300 174.086,165.705 181.777 C 184.703 190.172,214.402 190.464,232.600 182.435 C 233.040 182.240,234.120 181.773,235.000 181.397 C 273.787 164.791,295.649 123.940,287.977 82.400 C 287.713 80.970,287.545 79.440,287.604 79.000 C 287.912 76.685,287.362 72.400,286.756 72.400 C 286.560 72.400,286.400 71.860,286.400 71.200 C 286.400 70.540,286.220 70.000,286.000 70.000 C 285.780 70.000,285.600 69.460,285.600 68.800 C 285.600 68.140,285.420 67.600,285.200 67.600 C 284.980 67.600,284.800 67.161,284.800 66.624 C 284.800 66.087,284.620 65.536,284.400 65.400 C 284.180 65.264,284.000 64.803,284.000 64.376 C 284.000 63.949,283.820 63.600,283.600 63.600 C 283.380 63.600,283.200 63.251,283.200 62.824 C 283.200 62.397,283.020 61.936,282.800 61.800 C 282.580 61.664,282.400 61.203,282.400 60.776 C 282.400 60.349,282.220 60.000,282.000 60.000 C 281.780 60.000,281.600 59.640,281.600 59.200 C 281.600 58.760,281.420 58.400,281.200 58.400 C 280.980 58.400,280.800 58.040,280.800 57.600 C 280.800 57.160,280.620 56.800,280.400 56.800 C 280.180 56.800,280.000 56.522,280.000 56.183 C 280.000 55.844,279.640 55.180,279.200 54.708 C 278.760 54.236,278.400 53.613,278.400 53.325 C 278.400 53.036,278.220 52.800,278.000 52.800 C 277.780 52.800,277.600 52.480,277.600 52.088 C 277.600 51.697,277.240 51.117,276.800 50.800 C 276.360 50.483,276.000 49.986,276.000 49.695 C 276.000 49.404,275.818 48.949,275.595 48.683 C 275.372 48.417,274.517 47.195,273.695 45.966 C 271.265 42.336,270.490 41.453,264.142 35.081 C 258.158 29.075,256.432 27.536,253.503 25.593 C 252.679 25.047,252.004 24.465,252.003 24.300 C 252.001 24.135,251.680 24.000,251.288 24.000 C 250.897 24.000,250.317 23.640,250.000 23.200 C 249.683 22.760,249.186 22.400,248.895 22.400 C 248.604 22.400,247.980 22.040,247.508 21.600 C 247.036 21.160,246.413 20.800,246.125 20.800 C 245.836 20.800,245.600 20.620,245.600 20.400 C 245.600 20.180,245.240 20.000,244.800 20.000 C 244.360 20.000,244.000 19.820,244.000 19.600 C 244.000 19.380,243.640 19.200,243.200 19.200 C 242.760 19.200,242.400 19.054,242.400 18.875 C 242.400 18.696,241.770 18.302,241.000 18.000 C 240.230 17.698,239.600 17.304,239.600 17.125 C 239.600 16.946,239.240 16.800,238.800 16.800 C 238.360 16.800,238.000 16.620,238.000 16.400 C 238.000 16.180,237.651 16.000,237.224 16.000 C 236.797 16.000,236.336 15.820,236.200 15.600 C 236.064 15.380,235.513 15.200,234.976 15.200 C 234.439 15.200,234.000 15.020,234.000 14.800 C 234.000 14.580,233.640 14.400,233.200 14.400 C 232.760 14.400,232.400 14.259,232.400 14.087 C 232.400 13.915,231.905 13.734,231.300 13.684 C 230.695 13.634,230.140 13.415,230.067 13.197 C 229.993 12.978,229.408 12.800,228.767 12.800 C 228.125 12.800,227.600 12.590,227.600 12.333 C 227.600 12.077,227.496 11.970,227.370 12.097 C 227.243 12.223,226.568 12.148,225.870 11.930 C 220.958 10.396,215.755 9.333,211.200 8.932 C 207.165 8.577,193.428 8.302,193.161 8.571 M154.862 46.017 C 155.769 46.971,156.400 48.027,156.400 48.593 C 156.400 49.121,156.560 49.652,156.756 49.773 C 156.951 49.894,157.205 50.579,157.319 51.296 C 157.508 52.490,157.707 53.259,158.823 57.100 C 159.030 57.815,159.380 59.030,159.600 59.800 C 159.820 60.570,160.170 61.785,160.377 62.500 C 160.808 63.982,160.987 64.611,163.051 71.898 L 164.552 77.197 210.376 77.298 L 256.200 77.400 256.122 78.400 C 256.080 78.950,255.855 80.255,255.622 81.300 C 255.390 82.345,255.030 83.965,254.823 84.900 C 254.616 85.835,254.238 87.500,253.984 88.600 C 253.171 92.115,252.891 93.351,252.400 95.600 C 252.136 96.810,251.776 98.430,251.600 99.200 C 251.424 99.970,251.064 101.590,250.800 102.800 C 250.536 104.010,250.176 105.630,250.000 106.400 C 249.824 107.170,249.464 108.790,249.200 110.000 C 248.593 112.779,248.414 113.588,246.668 121.448 C 244.556 130.954,243.645 132.630,240.082 133.570 C 239.183 133.807,223.494 134.007,200.200 134.080 L 161.800 134.200 160.400 135.187 C 153.932 139.746,156.716 149.156,164.544 149.191 C 166.387 149.200,166.605 149.081,168.744 146.897 C 169.985 145.630,171.540 144.349,172.200 144.050 C 172.860 143.751,173.713 143.348,174.095 143.153 C 177.131 141.609,183.908 143.438,186.963 146.626 L 188.663 148.400 200.775 148.400 L 212.888 148.400 215.011 146.460 C 218.594 143.185,224.497 141.623,227.505 143.153 C 227.887 143.348,228.736 143.753,229.391 144.053 C 230.046 144.354,231.475 145.455,232.567 146.500 L 234.553 148.400 240.941 148.400 C 249.164 148.400,251.395 149.442,251.645 153.400 C 251.986 158.793,249.969 159.988,240.510 159.996 L 235.221 160.000 234.649 161.100 C 230.429 169.215,217.720 169.297,212.961 161.241 L 212.228 160.000 200.759 160.000 L 189.291 160.000 188.672 161.300 C 185.253 168.477,174.269 169.420,168.510 163.032 L 166.600 160.913 163.423 160.655 C 155.185 159.986,149.310 155.692,146.386 148.200 C 142.263 137.636,149.297 125.245,160.695 122.994 C 162.179 122.701,162.690 122.130,162.045 121.485 C 161.800 121.240,161.600 120.457,161.600 119.744 C 161.600 119.031,161.439 118.348,161.242 118.226 C 161.045 118.105,160.790 117.329,160.675 116.503 C 160.560 115.676,160.262 114.190,160.014 113.200 C 159.766 112.210,159.383 110.680,159.163 109.800 C 158.943 108.920,158.583 107.480,158.363 106.600 C 158.143 105.720,157.800 104.370,157.600 103.600 C 157.400 102.830,157.129 101.660,156.999 101.000 C 156.869 100.340,156.576 99.080,156.348 98.200 C 156.120 97.320,155.769 95.925,155.567 95.100 C 155.365 94.275,155.025 92.925,154.810 92.100 C 152.006 81.309,151.289 77.370,152.078 77.107 C 152.545 76.952,151.553 72.876,148.791 63.600 C 148.627 63.050,148.273 61.790,148.005 60.800 C 147.736 59.810,147.355 58.587,147.158 58.081 C 146.961 57.576,146.800 56.811,146.800 56.381 C 146.800 55.709,146.517 55.600,144.780 55.600 C 138.801 55.600,135.976 49.186,140.364 45.569 L 141.782 44.400 147.553 44.400 L 153.324 44.400 154.862 46.017 M72.599 246.497 C 72.479 246.994,72.430 268.010,72.490 293.200 L 72.600 339.000 98.800 339.000 L 125.000 339.000 125.000 292.400 L 125.000 245.800 98.908 245.697 L 72.817 245.594 72.599 246.497 M274.984 246.100 C 274.880 246.375,274.840 267.390,274.897 292.800 L 275.000 339.000 301.200 339.000 L 327.400 339.000 327.510 293.200 C 327.570 268.010,327.522 246.995,327.402 246.500 L 327.185 245.600 301.180 245.600 C 280.744 245.600,275.134 245.707,274.984 246.100 " stroke="none" fill="#f3f3f3" fill-rule="evenodd"></path><path id="path3" d="M140.654 45.785 C 136.806 49.351,138.895 54.503,144.439 55.120 L 146.957 55.400 147.685 58.000 C 148.086 59.430,148.611 61.320,148.853 62.200 C 149.095 63.080,149.431 64.250,149.600 64.800 C 149.769 65.350,150.129 66.610,150.400 67.600 C 150.671 68.590,151.031 69.850,151.200 70.400 C 151.369 70.950,151.729 72.210,152.000 73.200 C 152.271 74.190,152.674 75.495,152.895 76.100 L 153.297 77.200 158.649 77.200 C 164.144 77.200,164.273 77.157,163.651 75.519 C 163.311 74.624,163.039 73.708,162.008 70.000 C 161.732 69.010,161.369 67.750,161.200 67.200 C 161.031 66.650,160.693 65.480,160.449 64.600 C 159.804 62.273,155.993 48.716,155.768 47.948 C 155.032 45.439,153.268 44.800,147.085 44.800 C 141.936 44.800,141.674 44.840,140.654 45.785 M76.400 78.000 C 76.400 78.220,75.500 78.400,74.400 78.400 C 73.300 78.400,72.400 78.580,72.400 78.800 C 72.400 79.020,72.040 79.200,71.600 79.200 C 71.160 79.200,70.800 79.380,70.800 79.600 C 70.800 79.820,70.440 80.000,70.000 80.000 C 69.560 80.000,69.200 80.180,69.200 80.400 C 69.200 80.620,68.946 80.800,68.635 80.800 C 67.763 80.800,63.362 85.334,62.558 87.060 C 62.164 87.907,61.722 88.690,61.576 88.800 C 60.697 89.462,59.879 120.839,60.719 121.679 C 61.239 122.199,112.215 122.623,112.533 122.109 C 112.675 121.878,112.603 120.814,112.372 119.744 C 111.930 117.703,111.435 115.008,110.763 111.000 C 109.680 104.535,109.916 90.158,111.203 84.200 C 111.394 83.320,111.674 81.475,111.826 80.100 L 112.103 77.600 94.252 77.600 C 82.617 77.600,76.400 77.739,76.400 78.000 M287.937 78.300 C 287.866 79.087,287.904 79.384,288.434 82.200 C 290.564 93.531,290.393 107.909,288.011 117.600 C 287.822 118.370,287.546 119.765,287.398 120.700 L 287.130 122.400 312.339 122.400 C 327.750 122.400,337.947 122.248,338.574 122.010 L 339.600 121.620 339.600 107.229 C 339.600 99.314,339.439 92.424,339.242 91.919 C 339.045 91.413,338.657 90.240,338.381 89.310 C 338.105 88.381,337.546 87.264,337.139 86.827 C 336.733 86.391,336.400 85.834,336.400 85.591 C 336.400 84.970,332.573 81.309,331.602 81.000 C 331.161 80.861,330.800 80.578,330.800 80.373 C 330.800 80.168,330.440 80.000,330.000 80.000 C 329.560 80.000,329.200 79.820,329.200 79.600 C 329.200 79.380,328.851 79.200,328.424 79.200 C 327.997 79.200,327.536 79.020,327.400 78.800 C 327.264 78.580,326.353 78.400,325.376 78.400 C 324.399 78.400,323.600 78.220,323.600 78.000 C 323.600 77.182,288.011 77.481,287.937 78.300 M160.135 123.572 C 152.273 124.857,145.941 132.770,145.868 141.400 C 145.781 151.814,152.587 159.159,163.289 160.200 C 166.783 160.540,166.842 160.483,166.144 157.499 C 165.578 155.082,165.651 154.053,166.619 150.782 C 166.763 150.294,166.210 150.062,163.996 149.682 C 154.364 148.030,153.449 136.107,162.784 133.890 C 164.950 133.375,165.324 132.568,164.438 130.319 C 164.239 129.813,163.849 128.320,163.572 127.000 C 163.027 124.405,162.538 123.171,162.086 123.250 C 161.929 123.278,161.051 123.423,160.135 123.572 M189.031 149.150 C 188.912 149.343,189.106 150.354,189.461 151.398 C 189.932 152.780,190.048 154.093,189.887 156.218 C 189.610 159.883,188.704 159.601,200.733 159.595 C 212.112 159.588,212.508 159.537,211.975 158.134 C 211.411 156.650,211.524 153.116,212.197 151.208 C 212.526 150.277,212.695 149.354,212.574 149.157 C 212.288 148.695,189.317 148.688,189.031 149.150 M235.016 149.173 C 234.889 149.379,235.056 150.324,235.387 151.273 C 236.071 153.239,236.185 156.661,235.616 158.159 C 235.096 159.526,236.515 159.781,243.067 159.498 C 250.961 159.157,254.331 154.656,249.845 150.443 C 248.277 148.969,235.803 147.902,235.016 149.173 M193.400 245.840 C 177.821 248.106,163.757 259.999,158.643 275.233 C 156.601 281.316,156.662 279.549,156.521 337.300 L 156.389 391.600 199.423 391.600 C 236.186 391.600,242.540 391.517,243.029 391.029 C 243.873 390.184,243.867 289.905,243.021 283.600 C 239.806 259.616,217.161 242.384,193.400 245.840 " stroke="none" fill="#685149" fill-rule="evenodd"></path><path id="path4" d="M144.917 44.697 C 146.411 44.774,148.751 44.774,150.117 44.696 C 151.482 44.618,150.260 44.555,147.400 44.555 C 144.540 44.556,143.422 44.620,144.917 44.697 M152.236 77.218 C 151.607 77.853,151.552 78.147,151.926 78.894 C 152.356 79.754,152.367 79.744,152.146 78.700 C 151.968 77.859,152.065 77.600,152.557 77.600 C 152.910 77.600,153.200 77.330,153.200 77.000 C 153.200 76.262,153.180 76.266,152.236 77.218 M173.127 77.500 C 178.258 77.563,186.538 77.563,191.527 77.500 C 196.517 77.436,192.320 77.384,182.200 77.384 C 172.080 77.384,167.997 77.436,173.127 77.500 M255.449 78.615 C 255.312 78.973,255.216 79.656,255.236 80.133 C 255.262 80.747,255.385 80.608,255.659 79.656 C 256.057 78.272,255.894 77.458,255.449 78.615 M254.649 82.215 C 254.512 82.573,254.421 83.346,254.446 83.933 C 254.480 84.732,254.570 84.598,254.804 83.400 C 255.135 81.700,255.062 81.140,254.649 82.215 M253.785 86.300 C 253.470 87.808,252.940 90.229,252.428 92.500 C 252.193 93.545,251.807 95.255,251.572 96.300 C 251.337 97.345,250.983 98.920,250.786 99.800 C 250.589 100.680,250.126 102.710,249.757 104.310 C 249.389 105.911,249.185 107.319,249.305 107.439 C 249.426 107.559,249.638 107.059,249.777 106.329 C 249.917 105.598,250.204 104.235,250.415 103.300 C 250.627 102.365,250.967 100.835,251.172 99.900 C 251.377 98.965,251.737 97.345,251.972 96.300 C 252.207 95.255,252.593 93.545,252.828 92.500 C 253.340 90.229,253.870 87.808,254.185 86.300 C 254.312 85.695,254.325 85.200,254.215 85.200 C 254.105 85.200,253.912 85.695,253.785 86.300 M154.012 88.000 C 154.012 88.330,154.187 88.870,154.400 89.200 C 154.745 89.733,154.788 89.733,154.788 89.200 C 154.788 88.870,154.613 88.330,154.400 88.000 C 154.055 87.467,154.012 87.467,154.012 88.000 M154.812 91.200 C 154.812 91.530,154.987 92.070,155.200 92.400 C 155.545 92.933,155.588 92.933,155.588 92.400 C 155.588 92.070,155.413 91.530,155.200 91.200 C 154.855 90.667,154.812 90.667,154.812 91.200 M110.093 92.400 C 110.093 93.170,110.175 93.485,110.276 93.100 C 110.376 92.715,110.376 92.085,110.276 91.700 C 110.175 91.315,110.093 91.630,110.093 92.400 M289.701 93.400 C 289.705 94.280,289.787 94.593,289.883 94.095 C 289.979 93.598,289.975 92.878,289.875 92.495 C 289.775 92.113,289.696 92.520,289.701 93.400 M289.709 104.400 C 289.709 105.390,289.787 105.795,289.882 105.300 C 289.978 104.805,289.978 103.995,289.882 103.500 C 289.787 103.005,289.709 103.410,289.709 104.400 M110.101 105.400 C 110.105 106.280,110.187 106.593,110.283 106.095 C 110.379 105.598,110.375 104.878,110.275 104.495 C 110.175 104.113,110.096 104.520,110.101 105.400 M158.244 105.000 C 158.573 106.471,158.802 106.790,158.794 105.767 C 158.791 105.345,158.605 104.730,158.382 104.400 C 158.085 103.962,158.048 104.124,158.244 105.000 M159.044 108.200 C 159.373 109.671,159.602 109.990,159.594 108.967 C 159.591 108.545,159.405 107.930,159.182 107.600 C 158.885 107.162,158.848 107.324,159.044 108.200 M248.622 109.422 C 248.472 110.225,248.438 110.972,248.548 111.082 C 248.658 111.192,248.872 110.625,249.022 109.822 C 249.173 109.019,249.206 108.273,249.096 108.163 C 248.986 108.053,248.773 108.619,248.622 109.422 M159.858 111.600 C 160.175 113.325,160.402 113.651,160.394 112.367 C 160.391 111.835,160.211 111.130,159.994 110.800 C 159.718 110.378,159.677 110.615,159.858 111.600 M248.049 112.000 C 248.016 112.330,247.889 113.050,247.767 113.600 C 247.575 114.464,247.607 114.503,247.999 113.888 C 248.248 113.497,248.375 112.777,248.281 112.288 C 248.186 111.800,248.082 111.670,248.049 112.000 M160.644 115.000 C 160.973 116.471,161.202 116.790,161.194 115.767 C 161.191 115.345,161.005 114.730,160.782 114.400 C 160.485 113.962,160.448 114.124,160.644 115.000 M247.029 116.629 C 246.881 117.215,246.838 117.772,246.932 117.866 C 247.027 117.960,247.224 117.558,247.371 116.971 C 247.519 116.385,247.562 115.828,247.468 115.734 C 247.373 115.640,247.176 116.042,247.029 116.629 M161.458 118.400 C 161.775 120.125,162.002 120.451,161.994 119.167 C 161.991 118.635,161.811 117.930,161.594 117.600 C 161.318 117.178,161.277 117.415,161.458 118.400 M246.229 120.229 C 246.081 120.815,246.038 121.372,246.132 121.466 C 246.227 121.560,246.424 121.158,246.571 120.571 C 246.719 119.985,246.762 119.428,246.668 119.334 C 246.573 119.240,246.376 119.642,246.229 120.229 M162.207 121.788 C 162.256 122.580,162.409 123.342,162.547 123.481 C 162.925 123.859,162.840 121.483,162.454 120.874 C 162.246 120.546,162.153 120.892,162.207 121.788 M245.429 123.829 C 245.281 124.415,245.238 124.972,245.332 125.066 C 245.427 125.160,245.624 124.758,245.771 124.171 C 245.919 123.585,245.962 123.028,245.868 122.934 C 245.773 122.840,245.576 123.242,245.429 123.829 M114.012 126.400 C 114.012 126.730,114.187 127.270,114.400 127.600 C 114.745 128.133,114.788 128.133,114.788 127.600 C 114.788 127.270,114.613 126.730,114.400 126.400 C 114.055 125.867,114.012 125.867,114.012 126.400 M244.600 127.200 C 244.450 127.673,244.417 128.150,244.527 128.260 C 244.637 128.370,244.850 128.073,245.000 127.600 C 245.150 127.127,245.183 126.650,245.073 126.540 C 244.963 126.430,244.750 126.727,244.600 127.200 M114.812 128.800 C 114.812 129.130,114.987 129.670,115.200 130.000 C 115.545 130.533,115.588 130.533,115.588 130.000 C 115.588 129.670,115.413 129.130,115.200 128.800 C 114.855 128.267,114.812 128.267,114.812 128.800 M284.258 130.104 C 283.328 132.540,283.480 133.004,284.436 130.647 C 284.872 129.573,285.158 128.624,285.072 128.538 C 284.986 128.452,284.620 129.157,284.258 130.104 M243.384 130.280 C 242.986 130.888,242.287 131.714,241.830 132.116 C 241.016 132.833,241.021 132.835,242.072 132.196 C 243.163 131.533,244.609 129.676,244.286 129.353 C 244.188 129.255,243.783 129.672,243.384 130.280 M220.000 133.200 L 199.800 133.411 219.800 133.499 C 232.191 133.554,240.028 133.440,240.400 133.200 C 240.730 132.987,240.820 132.852,240.600 132.901 C 240.380 132.949,231.110 133.084,220.000 133.200 M282.764 133.894 C 282.388 134.884,281.301 137.347,280.909 138.100 C 280.823 138.265,280.849 138.400,280.966 138.400 C 281.084 138.400,281.549 137.591,281.999 136.601 C 283.150 134.075,283.613 132.800,283.380 132.800 C 283.270 132.800,282.993 133.292,282.764 133.894 M165.283 133.660 C 165.567 133.840,166.790 133.976,168.000 133.962 C 170.658 133.932,170.242 133.721,167.083 133.496 C 165.789 133.404,164.994 133.476,165.283 133.660 M118.400 137.353 C 118.400 137.782,119.590 140.000,119.821 140.000 C 119.931 140.000,119.723 139.415,119.359 138.700 C 118.617 137.240,118.400 136.936,118.400 137.353 M278.609 142.498 C 277.992 143.654,277.676 144.420,277.906 144.200 C 278.501 143.632,280.070 140.737,279.884 140.551 C 279.799 140.466,279.225 141.342,278.609 142.498 M120.808 142.079 C 120.797 142.456,123.379 146.804,124.205 147.800 C 124.570 148.240,124.458 147.880,123.956 147.000 C 122.374 144.226,120.815 141.789,120.808 142.079 M176.900 143.087 C 177.505 143.178,178.495 143.178,179.100 143.087 C 179.705 142.995,179.210 142.920,178.000 142.920 C 176.790 142.920,176.295 142.995,176.900 143.087 M173.800 143.600 C 173.296 143.817,173.222 143.944,173.600 143.944 C 173.930 143.944,174.560 143.789,175.000 143.600 C 175.504 143.383,175.578 143.256,175.200 143.256 C 174.870 143.256,174.240 143.411,173.800 143.600 M181.200 143.676 C 184.401 145.025,185.836 145.953,187.091 147.485 C 187.864 148.428,188.651 149.200,188.839 149.200 C 189.028 149.200,188.241 148.233,187.091 147.050 C 185.169 145.074,181.983 143.162,180.722 143.227 C 180.435 143.242,180.650 143.444,181.200 143.676 M219.800 143.600 L 219.000 143.944 219.800 143.966 C 220.240 143.978,220.870 143.813,221.200 143.600 C 221.995 143.086,220.996 143.086,219.800 143.600 M226.400 143.600 C 226.730 143.813,227.270 143.988,227.600 143.988 C 228.133 143.988,228.133 143.945,227.600 143.600 C 227.270 143.387,226.730 143.212,226.400 143.212 C 225.867 143.212,225.867 143.255,226.400 143.600 M170.934 145.149 C 170.062 145.781,168.769 147.030,168.060 147.924 C 167.137 149.090,166.407 149.597,165.486 149.712 L 164.200 149.872 165.647 149.936 C 166.917 149.992,167.220 149.808,168.131 148.432 C 168.702 147.570,169.851 146.365,170.684 145.754 C 172.613 144.342,173.013 144.000,172.740 144.000 C 172.619 144.000,171.806 144.517,170.934 145.149 M216.960 145.143 C 216.102 145.772,214.904 146.852,214.297 147.543 C 213.690 148.234,213.005 148.800,212.773 148.800 C 212.542 148.800,212.472 148.993,212.618 149.229 C 212.774 149.482,213.726 148.775,214.941 147.504 C 216.074 146.320,217.450 145.057,218.000 144.697 C 218.550 144.337,218.892 144.033,218.760 144.021 C 218.628 144.009,217.818 144.514,216.960 145.143 M228.600 144.400 C 228.736 144.620,229.126 144.800,229.467 144.800 C 229.809 144.800,231.134 145.886,232.412 147.213 C 233.710 148.559,234.850 149.443,234.992 149.213 C 235.132 148.986,235.064 148.800,234.840 148.800 C 234.616 148.800,233.759 148.073,232.937 147.183 C 231.055 145.149,227.754 143.031,228.600 144.400 M274.242 149.505 C 272.945 151.383,272.093 152.790,272.348 152.632 C 272.897 152.293,276.930 146.391,276.734 146.213 C 276.660 146.147,275.539 147.628,274.242 149.505 M126.391 151.188 C 126.857 151.841,127.442 152.502,127.691 152.656 C 127.941 152.811,127.641 152.276,127.025 151.468 C 125.688 149.715,125.184 149.492,126.391 151.188 M128.407 153.800 C 129.927 155.941,134.616 161.258,136.872 163.399 L 139.400 165.798 136.560 162.799 C 134.998 161.150,132.591 158.450,131.210 156.800 C 128.585 153.665,127.440 152.439,128.407 153.800 M268.298 157.300 C 267.293 158.455,266.537 159.468,266.619 159.550 C 266.757 159.690,267.992 158.329,269.729 156.125 C 271.079 154.412,270.141 155.182,268.298 157.300 M188.370 160.700 C 187.877 161.525,186.918 162.830,186.237 163.599 L 185.000 164.998 186.329 163.799 C 187.060 163.140,188.034 161.933,188.493 161.117 C 188.952 160.301,189.614 159.557,189.964 159.463 C 190.518 159.315,190.514 159.287,189.933 159.246 C 189.558 159.220,188.873 159.857,188.370 160.700 M211.866 159.600 C 212.342 159.792,212.922 160.275,213.154 160.674 C 213.386 161.074,213.575 161.220,213.575 161.000 C 213.574 160.239,212.509 159.200,211.756 159.225 C 211.090 159.248,211.103 159.292,211.866 159.600 M234.244 160.500 L 233.515 161.800 234.458 160.740 C 234.976 160.157,235.670 159.586,236.000 159.471 C 236.415 159.327,236.349 159.253,235.786 159.232 C 235.266 159.211,234.710 159.668,234.244 160.500 M166.400 160.304 C 166.400 160.471,166.764 160.835,167.209 161.113 C 167.959 161.581,167.981 161.559,167.513 160.809 C 167.009 160.003,166.400 159.726,166.400 160.304 M263.400 162.570 C 262.080 163.919,259.830 166.074,258.400 167.359 C 256.970 168.645,256.544 169.136,257.454 168.451 C 259.616 166.823,266.718 160.023,266.200 160.077 C 265.980 160.100,264.720 161.222,263.400 162.570 M214.243 162.471 C 215.185 163.692,217.568 165.775,217.766 165.550 C 217.838 165.467,216.890 164.500,215.657 163.400 C 214.425 162.300,213.789 161.882,214.243 162.471 M169.686 163.814 C 170.723 164.885,171.648 165.680,171.741 165.581 C 171.834 165.481,170.985 164.605,169.855 163.633 L 167.800 161.866 169.686 163.814 M231.461 163.816 C 230.395 164.797,229.683 165.600,229.878 165.600 C 230.073 165.600,231.028 164.790,232.000 163.800 C 234.258 161.500,233.969 161.508,231.461 163.816 M139.600 165.803 C 139.600 166.037,140.976 167.275,143.075 168.929 C 144.825 170.308,143.997 169.350,141.800 167.453 C 140.590 166.409,139.600 165.666,139.600 165.803 M174.713 166.872 C 175.648 167.242,180.489 167.259,181.060 166.894 C 181.313 166.732,179.834 166.600,177.773 166.600 C 175.713 166.600,174.336 166.722,174.713 166.872 M220.940 166.894 C 221.193 167.056,222.480 167.188,223.800 167.188 C 225.120 167.188,226.408 167.056,226.662 166.894 C 226.917 166.732,225.630 166.600,223.802 166.600 C 221.975 166.600,220.687 166.732,220.940 166.894 M254.629 170.229 C 254.205 170.538,253.936 170.869,254.030 170.963 C 254.124 171.057,254.548 170.881,254.971 170.571 C 255.395 170.262,255.664 169.931,255.570 169.837 C 255.476 169.743,255.052 169.919,254.629 170.229 M147.605 172.274 C 147.610 172.630,150.396 174.538,150.605 174.329 C 150.675 174.258,150.028 173.693,149.167 173.074 C 148.305 172.455,147.602 172.095,147.605 172.274 M154.400 176.764 C 154.950 177.214,155.580 177.583,155.800 177.585 C 156.228 177.588,155.505 177.034,154.200 176.360 C 153.669 176.085,153.736 176.221,154.400 176.764 M245.100 176.629 C 244.495 176.957,244.000 177.310,244.000 177.413 C 244.000 177.799,244.632 177.557,245.600 176.800 C 246.789 175.870,246.611 175.809,245.100 176.629 M156.569 177.949 C 156.687 178.140,158.092 178.940,159.692 179.726 C 162.681 181.196,165.155 182.222,164.760 181.827 C 164.310 181.376,156.361 177.614,156.569 177.949 M239.433 179.628 C 235.333 181.667,234.175 182.370,236.161 181.615 C 238.736 180.636,244.642 177.462,243.580 177.628 C 243.481 177.644,241.615 178.544,239.433 179.628 M166.606 182.810 C 166.706 182.972,167.235 183.190,167.782 183.294 C 168.329 183.399,168.694 183.352,168.594 183.190 C 168.494 183.028,167.965 182.810,167.418 182.706 C 166.871 182.601,166.506 182.648,166.606 182.810 M230.200 183.629 C 229.320 184.052,229.038 184.286,229.574 184.149 C 231.039 183.773,233.086 182.829,232.400 182.845 C 232.070 182.853,231.080 183.206,230.200 183.629 M174.800 185.600 C 175.130 185.813,175.670 185.988,176.000 185.988 C 176.533 185.988,176.533 185.945,176.000 185.600 C 175.670 185.387,175.130 185.212,174.800 185.212 C 174.267 185.212,174.267 185.255,174.800 185.600 M177.800 186.400 C 178.240 186.589,178.870 186.744,179.200 186.744 C 179.578 186.744,179.504 186.617,179.000 186.400 C 178.560 186.211,177.930 186.056,177.600 186.056 C 177.222 186.056,177.296 186.183,177.800 186.400 M221.000 186.400 C 220.496 186.617,220.422 186.744,220.800 186.744 C 221.130 186.744,221.760 186.589,222.200 186.400 C 222.704 186.183,222.778 186.056,222.400 186.056 C 222.070 186.056,221.440 186.211,221.000 186.400 M181.400 187.200 C 181.840 187.389,182.560 187.538,183.000 187.532 C 183.643 187.523,183.604 187.457,182.800 187.200 C 181.432 186.762,180.381 186.762,181.400 187.200 M217.200 187.200 C 216.396 187.457,216.357 187.523,217.000 187.532 C 217.440 187.538,218.160 187.389,218.600 187.200 C 219.619 186.762,218.568 186.762,217.200 187.200 M232.800 188.224 C 232.800 189.007,232.960 189.548,233.156 189.427 C 233.352 189.306,233.638 189.880,233.792 190.704 C 236.358 204.419,250.994 217.429,263.545 217.150 C 265.777 217.100,265.766 217.094,262.400 216.588 C 260.530 216.306,258.370 215.891,257.600 215.665 C 256.830 215.439,255.752 215.120,255.204 214.955 C 254.291 214.681,251.672 213.379,249.200 211.970 C 241.847 207.778,235.909 198.929,233.989 189.300 C 233.443 186.560,232.800 185.978,232.800 188.224 M166.018 189.500 C 165.389 192.336,164.845 194.350,164.423 195.400 C 159.822 206.849,151.065 214.204,139.200 216.585 C 137.391 216.948,136.990 217.121,137.880 217.153 C 143.052 217.342,152.514 212.564,157.543 207.226 C 161.948 202.549,166.400 193.807,166.400 189.833 C 166.400 189.459,166.580 189.264,166.800 189.400 C 167.033 189.544,167.200 189.137,167.200 188.424 C 167.200 186.443,166.568 187.019,166.018 189.500 M99.405 188.672 C 98.308 194.200,98.393 193.935,96.230 198.494 C 92.629 206.085,85.605 212.384,77.800 215.023 C 77.311 215.188,77.192 215.365,77.493 215.478 C 78.304 215.781,83.755 212.944,86.882 210.592 C 92.900 206.066,97.803 198.686,99.238 191.995 C 99.809 189.335,100.157 189.478,100.948 192.700 C 102.579 199.343,107.303 206.404,112.964 210.660 C 116.680 213.453,123.604 216.732,124.885 216.305 C 125.148 216.217,124.382 215.835,123.182 215.456 C 114.173 212.611,102.400 201.296,102.400 195.484 C 102.400 195.196,102.249 194.789,102.064 194.580 C 101.730 194.202,100.894 190.676,100.701 188.831 C 100.556 187.439,99.672 187.330,99.405 188.672 M185.800 188.000 C 186.240 188.189,187.050 188.338,187.600 188.332 L 188.600 188.320 187.600 188.000 C 187.050 187.824,186.240 187.674,185.800 187.668 L 185.000 187.656 185.800 188.000 M212.200 188.000 L 211.000 188.305 212.200 188.325 C 212.860 188.335,213.760 188.189,214.200 188.000 L 215.000 187.656 214.200 187.675 C 213.760 187.686,212.860 187.832,212.200 188.000 M299.467 187.867 C 299.320 188.013,299.214 188.778,299.232 189.567 C 299.249 190.355,299.354 190.775,299.465 190.500 C 299.872 189.490,300.345 190.051,300.774 192.054 C 302.320 199.262,308.053 207.314,314.860 211.840 C 317.851 213.829,321.868 215.721,322.549 215.463 C 322.797 215.370,322.640 215.172,322.200 215.025 C 314.498 212.444,307.444 206.126,303.774 198.522 C 301.668 194.159,301.694 194.241,300.602 188.700 C 300.389 187.622,299.998 187.335,299.467 187.867 M192.223 188.853 C 192.870 188.992,196.370 189.105,200.000 189.105 C 203.630 189.105,207.130 188.992,207.777 188.853 C 208.425 188.714,204.925 188.600,200.000 188.600 C 195.075 188.600,191.575 188.714,192.223 188.853 M167.256 190.800 C 167.256 191.350,167.411 192.160,167.600 192.600 C 167.913 193.329,167.944 193.312,167.944 192.400 C 167.944 191.850,167.789 191.040,167.600 190.600 C 167.287 189.871,167.256 189.888,167.256 190.800 M232.178 191.378 C 232.027 192.181,232.004 192.937,232.126 193.060 C 232.248 193.182,232.472 192.625,232.622 191.822 C 232.773 191.019,232.796 190.263,232.674 190.140 C 232.552 190.018,232.328 190.575,232.178 191.378 M298.617 192.200 C 295.668 204.758,284.624 214.587,271.200 216.602 C 268.235 217.047,268.056 217.116,269.800 217.142 C 278.006 217.263,289.212 210.595,294.542 202.418 C 297.094 198.503,299.516 192.678,299.082 191.498 C 298.981 191.224,298.772 191.540,298.617 192.200 M168.027 193.800 C 167.866 196.207,172.242 203.447,176.347 207.563 C 181.580 212.810,190.187 217.227,195.000 217.137 C 196.408 217.110,196.288 217.044,194.000 216.585 C 183.247 214.427,174.372 207.512,170.103 197.964 C 169.472 196.554,168.753 194.950,168.505 194.400 C 168.257 193.850,168.042 193.580,168.027 193.800 M231.396 194.539 C 228.673 204.794,217.823 214.213,206.000 216.585 C 203.712 217.044,203.592 217.110,205.000 217.137 C 209.776 217.226,218.395 212.818,223.626 207.611 C 227.834 203.422,232.517 195.598,231.865 193.846 C 231.773 193.601,231.563 193.912,231.396 194.539 M357.742 205.809 C 355.202 208.942,348.329 213.618,344.200 215.021 C 343.760 215.171,343.608 215.372,343.863 215.467 C 345.654 216.142,359.600 206.478,359.600 204.562 C 359.600 204.010,358.722 204.599,357.742 205.809 M40.400 293.024 C 40.400 351.737,40.534 381.165,40.800 381.000 C 41.044 380.849,41.200 381.463,41.200 382.576 C 41.200 383.579,41.380 384.400,41.600 384.400 C 42.176 384.400,42.094 385.496,41.500 385.735 C 41.225 385.846,41.371 385.951,41.824 385.968 C 42.277 385.986,43.267 386.716,44.024 387.591 C 44.781 388.466,45.715 389.186,46.100 389.191 C 46.485 389.196,46.800 389.380,46.800 389.600 C 46.800 389.820,47.244 390.000,47.787 390.000 C 48.469 390.000,48.708 390.173,48.560 390.560 C 48.442 390.867,48.566 391.255,48.835 391.421 C 49.147 391.615,49.221 391.557,49.038 391.262 C 48.826 390.918,51.155 390.800,58.176 390.800 C 64.192 390.800,67.600 390.655,67.600 390.400 C 67.600 390.180,67.337 390.000,67.016 390.000 C 66.112 390.000,62.639 386.365,62.048 384.800 C 61.757 384.030,61.354 383.040,61.153 382.600 C 60.934 382.122,60.829 348.763,60.893 299.600 L 61.000 217.400 63.600 217.169 C 65.966 216.959,66.038 216.927,64.400 216.820 C 63.410 216.754,61.750 216.642,60.711 216.570 C 55.630 216.219,48.167 212.257,43.303 207.329 C 41.930 205.938,40.715 204.800,40.603 204.800 C 40.492 204.800,40.400 244.501,40.400 293.024 M75.088 215.845 C 74.954 215.980,73.259 216.320,71.322 216.601 C 68.345 217.033,68.110 217.117,69.800 217.142 C 71.703 217.170,76.224 216.309,76.707 215.827 C 76.831 215.702,76.573 215.600,76.133 215.600 C 75.693 215.600,75.223 215.710,75.088 215.845 M323.260 215.769 C 323.741 216.295,328.182 217.172,330.200 217.140 C 332.029 217.110,331.926 217.065,329.000 216.607 C 327.240 216.332,325.170 215.967,324.400 215.796 C 323.630 215.625,323.117 215.613,323.260 215.769 M341.478 215.856 C 341.337 215.996,339.552 216.337,337.511 216.613 C 334.234 217.056,334.057 217.118,336.000 217.143 C 337.210 217.159,339.253 216.920,340.540 216.613 C 343.026 216.019,343.851 215.600,342.533 215.600 C 342.093 215.600,341.618 215.715,341.478 215.856 M126.200 216.800 C 126.640 216.989,127.630 217.138,128.400 217.132 C 129.673 217.121,129.709 217.091,128.800 216.800 C 127.348 216.335,125.118 216.335,126.200 216.800 M131.911 217.493 C 132.851 217.578,134.291 217.577,135.111 217.491 C 135.930 217.405,135.160 217.336,133.400 217.337 C 131.640 217.339,130.970 217.409,131.911 217.493 M198.500 217.491 C 199.325 217.578,200.675 217.578,201.500 217.491 C 202.325 217.405,201.650 217.334,200.000 217.334 C 198.350 217.334,197.675 217.405,198.500 217.491 M194.143 245.506 C 193.892 245.668,196.458 245.803,199.845 245.806 C 203.233 245.809,205.688 245.687,205.302 245.534 C 204.356 245.160,194.719 245.136,194.143 245.506 M207.233 246.147 C 207.325 246.228,208.120 246.414,209.000 246.562 C 210.146 246.754,210.430 246.714,210.000 246.421 C 209.460 246.053,206.832 245.793,207.233 246.147 M211.800 247.200 C 212.240 247.389,212.870 247.544,213.200 247.544 C 213.578 247.544,213.504 247.417,213.000 247.200 C 212.560 247.011,211.930 246.856,211.600 246.856 C 211.222 246.856,211.296 246.983,211.800 247.200 M219.800 250.400 C 219.936 250.620,220.225 250.800,220.442 250.800 C 221.426 250.800,227.351 255.237,230.791 258.549 C 232.876 260.557,234.046 261.570,233.391 260.800 C 229.517 256.247,217.937 247.386,219.800 250.400 M175.995 252.255 C 172.161 254.796,168.106 258.505,165.485 261.865 C 164.998 262.489,166.490 261.103,168.800 258.785 C 171.110 256.467,174.215 253.791,175.700 252.838 C 178.041 251.337,178.724 250.800,178.295 250.800 C 178.237 250.800,177.202 251.455,175.995 252.255 M235.827 264.562 C 236.649 265.799,237.401 266.732,237.499 266.634 C 237.712 266.421,235.373 262.954,234.761 262.576 C 234.526 262.430,235.005 263.324,235.827 264.562 M161.400 268.000 C 161.059 268.660,160.869 269.200,160.979 269.200 C 161.089 269.200,161.459 268.660,161.800 268.000 C 162.141 267.340,162.331 266.800,162.221 266.800 C 162.111 266.800,161.741 267.340,161.400 268.000 M238.667 269.359 C 239.266 270.579,239.840 271.494,239.942 271.391 C 240.164 271.169,238.398 267.646,237.915 267.348 C 237.730 267.233,238.069 268.138,238.667 269.359 M240.806 274.033 C 240.831 274.751,242.360 278.819,242.372 278.200 C 242.389 277.324,241.511 274.578,241.074 274.141 C 240.923 273.990,240.803 273.942,240.806 274.033 M157.849 276.215 C 157.712 276.573,157.615 277.166,157.634 277.533 C 157.653 277.900,157.827 277.669,158.021 277.020 C 158.398 275.758,158.265 275.133,157.849 276.215 M157.067 279.067 C 156.920 279.213,156.823 280.068,156.850 280.967 L 156.900 282.600 157.199 280.800 C 157.516 278.896,157.496 278.638,157.067 279.067 M242.659 281.000 C 242.799 282.100,242.977 283.075,243.056 283.167 C 243.399 283.564,243.150 280.141,242.797 279.600 C 242.530 279.190,242.486 279.635,242.659 281.000 M156.249 283.415 C 156.112 283.773,156.043 308.306,156.096 337.933 L 156.193 391.800 156.396 337.400 C 156.614 279.338,156.622 282.444,156.249 283.415 M243.512 337.140 C 243.589 373.801,243.494 390.800,243.212 390.800 C 242.986 390.800,242.800 390.980,242.800 391.200 C 242.800 391.420,243.070 391.600,243.400 391.600 C 244.041 391.600,244.308 288.597,243.677 285.040 C 243.525 284.182,243.451 307.627,243.512 337.140 " stroke="none" fill="#e7897c" fill-rule="evenodd"></path></g></svg>